<svg xmlns='http://www.w3.org/2000/svg' fill='none' stroke='#fff' fill-rule='evenodd' stroke-linecap='round' stroke-linejoin='round' stroke-width='2' viewBox='0 0 32 32'>
    <path d="M25.425 1.5c2.784 0 5.075 2.291 5.075 5.075s-2.291 5.075-5.075 5.075H20.35V6.575c0-2.784 2.291-5.075 5.075-5.075zM11.65 11.65H6.575C3.791 11.65 1.5 9.359 1.5 6.575S3.791 1.5 6.575 1.5s5.075 2.291 5.075 5.075v5.075zm8.7 8.7h5.075c2.784 0 5.075 2.291 5.075 5.075S28.209 30.5 25.425 30.5s-5.075-2.291-5.075-5.075V20.35zM6.575 30.5c-2.784 0-5.075-2.291-5.075-5.075s2.291-5.075 5.075-5.075h5.075v5.075c0 2.784-2.291 5.075-5.075 5.075z"/>
    <path d="M11.65 11.65h8.7v8.7h-8.7z"/>
</svg>
