<svg xmlns='http://www.w3.org/2000/svg' fill='none' stroke='#fff' fill-rule='evenodd' stroke-linecap='round' stroke-linejoin='round' stroke-width='2' viewBox='0 0 32 32'>
    <path d="M16 25.125v5.368M5.265 4.728l21.471 23.618m-4.789-5.267c-1.698 1.326-3.793 2.047-5.947 2.047-5.3 0-9.662-4.362-9.662-9.662"/>
    <path d="M25.662 15.463a9.62 9.62 0 0 1-.978 4.242m-5.64.187c-.895.616-1.957.943-3.043.939-2.945 0-5.368-2.423-5.368-5.368v-4.831m.442-5.896A5.38 5.38 0 0 1 16 1.507c2.945 0 5.368 2.423 5.368 5.368v8.588c0 .188-.01.375-.03.562"/>
</svg>
