<svg xmlns="http://www.w3.org/2000/svg" fill="#fff" viewBox="0 0 32 32" fill-rule="evenodd" stroke-linejoin="round" stroke-miterlimit="2">
    <g transform="matrix(.141045 0 0 .140034 -1.8442 -1.94483)">
        <path d="M71.82 60.375H40.539c-13.319 0-24.134 10.892-24.134 24.308v86.927c0 13.416 10.815 24.308 24.134 24.308h139.889c4.029 0 7.302-3.296 7.302-7.354s-3.272-7.354-7.302-7.354H40.539c-5.261 0-9.531-4.301-9.531-9.6V84.683c0-5.298 4.27-9.6 9.531-9.6H71.82c4.029 0 7.302-3.296 7.302-7.354s-3.272-7.354-7.302-7.354zm136.967 135.544h3.702c13.319 0 24.134-10.892 24.134-24.308V84.683c0-13.416-10.815-24.308-24.134-24.308H100.18c-4.031 0-7.302 3.296-7.302 7.354s3.271 7.354 7.302 7.354h112.309c5.261 0 9.531 4.301 9.531 9.6v86.927c0 5.298-4.27 9.6-9.531 9.6h-3.702c-4.031 0-7.302 3.296-7.302 7.354s3.271 7.354 7.302 7.354z"/><path d="M51.903 53.73L195.24 212.063c2.342 2.587 6.343 2.785 8.929.444s2.786-6.343.444-8.929L61.275 45.245c-2.341-2.587-6.342-2.786-8.929-.444s-2.785 6.343-.443 8.929z" transform="matrix(1.16827 0 0 1.17671 -23.3256 -23.2416)"/><path d="M128 5.221C59.921 5.221 4.029 59.921 4.029 128S59.921 250.779 128 250.779 251.971 196.079 251.971 128 196.079 5.221 128 5.221zm0 53.558c37.891 0 68.029 31.33 68.029 69.221S165.891 197.221 128 197.221 59.971 165.891 59.971 128 90.109 58.779 128 58.779z" transform="matrix(.228762 0 0 .23373 153.566 95.6515)"/><path d="M47.274 131.649H91.92c3.332 0 6.037-2.725 6.037-6.08s-2.705-6.08-6.037-6.08H47.274c-3.332 0-6.037 2.725-6.037 6.08s2.705 6.08 6.037 6.08z"/><path d="M63.561 103.085v44.968c0 3.356 2.705 6.08 6.037 6.08s6.037-2.725 6.037-6.08v-44.968c0-3.356-2.705-6.08-6.037-6.08s-6.037 2.725-6.037 6.08z"/>
    </g>
</svg>
