<svg xmlns="http://www.w3.org/2000/svg" fill="#fff" viewBox="0 0 32 32" fill-rule="evenodd" stroke-linejoin="round" stroke-miterlimit="2">
    <g transform="matrix(.164779 0 0 .164779 -5.091686 -5.091688)">
        <path d="M222.25 91.063c0-11.401-9.257-20.658-20.658-20.658H54.408c-11.401 0-20.658 9.257-20.658 20.658v73.873c0 11.401 9.257 20.658 20.658 20.658h147.184c11.401 0 20.658-9.257 20.658-20.658V91.063zm-12.5 0v73.873c0 4.503-3.655 8.158-8.158 8.158H54.408c-4.503 0-8.158-3.655-8.158-8.158V91.063c0-4.503 3.655-8.158 8.158-8.158h147.184c4.502 0 8.158 3.655 8.158 8.158zm-33.531 10.359c-13.331 0-24.275 10.865-24.275 24.388s10.944 24.388 24.275 24.388 24.275-10.865 24.275-24.388-10.944-24.388-24.275-24.388zm0 10.638c7.42 0 13.321 6.223 13.321 13.749s-5.901 13.749-13.321 13.749-13.321-6.223-13.321-13.749 5.901-13.749 13.321-13.749zM60.173 130.977h38.215a5.17 5.17 0 0 0 5.167-5.167 5.17 5.17 0 0 0-5.167-5.167H60.173a5.17 5.17 0 0 0-5.167 5.167 5.17 5.17 0 0 0 5.167 5.167z"/><path d="M74.114 106.702v38.215a5.17 5.17 0 0 0 5.167 5.167 5.17 5.17 0 0 0 5.167-5.167v-38.215a5.17 5.17 0 0 0-5.167-5.167 5.17 5.17 0 0 0-5.167 5.167z"/>
    </g>
</svg>
